{"title":"the Bounty Hunter 2010 ENG/TS XviD R.S.A. team","uid":5453535,"size":1349803106,"categoryP":"video","categoryS":"movies","magnet":"?xt=urn:btih:d64c685ee43b0ce34f0e95fbf5c07f1ff1d901d7&amp;dn=the+Bounty+Hunter+2010+ENG%2FTS+XviD+R.S.A.+team&amp;tr=udp%3A%2F%2Ftracker.openbittorrent.com%3A80&amp;tr=udp%3A%2F%2Fopen.demonii.com%3A1337&amp;tr=udp%3A%2F%2Ftracker.coppersurfer.tk%3A6969&amp;tr=udp%3A%2F%2Fexodus.desync.com%3A6969","seeders":0,"leechers":0,"uploader":"rolly20","files":-1,"time":1269259001,"description":"General\nComplete name : The Bounty Hunter R.S.A. TS\nFormat : AVI\nFormat/Info : Audio Video Interleave\nFile size : 1.25GB\nDuration : 1h 45mn\nOverall bit rate : 1500 Kbps\n\nVideo\nID : 0\nFormat : MPEG-4 Visual\nFormat settings, BVOP : Yes\nFormat settings, QPel : No\nFormat settings, GMC : No warppoints\nFormat settings, Matrix : Default (H.263)\nMuxing mode : Packed bitstream\nCodec ID : DX50\nCodec ID/Hint : DivX 5\nDuration : 1h 45mn\nBit rate : 1 500 Kbps\nWidth : 640 pixels\nHeight : 272 pixels\nDisplay aspect ratio : 2.35:1\nFrame rate : 24.577 fps\nResolution : 8 bits\nColorimetry : 4:2:0\nScan type : Progressive\nBits/(Pixel*Frame) : 0.234\nStream size : 757 MiB (88%)\nTitle : Video\nWriting library : DivX 6.8.5 (UTC 2009-08-20)\n\nAudio\nID : 1\nFormat : MPEG Audio\nFormat version : Version 1\nFormat profile : Layer 3\nMode : Joint stereo\nFormat_Settings_ModeExtension : MS Stereo\nCodec ID : 55\nCodec ID/Hint : MP3\nDuration : 1h 45mn\nBit rate mode : Constant\nBit rate : 128 Kbps\nChannel(s) : 2 channels\nSampling rate : 48.0 KHz\nStream size : 96.9 MiB (11%)\nAlignment : Split accross interleaves\nInterleave, duration : 41 ms (1.00 video frame)\nInterleave, preload duration : 500 ms\nTitle : Audio\n\n\n\nThere are many users who are talking and not downloading.First download and then comment.Lock at the latest comments on my torrent and you will see that is real.Here are some screenshots of this torrent\n","torrent":{"xt":"urn:btih:d64c685ee43b0ce34f0e95fbf5c07f1ff1d901d7","amp;dn":"the+Bounty+Hunter+2010+ENG%2FTS+XviD+R.S.A.+team","amp;tr":["udp%3A%2F%2Ftracker.openbittorrent.com%3A80","udp%3A%2F%2Fopen.demonii.com%3A1337","udp%3A%2F%2Ftracker.coppersurfer.tk%3A6969","udp%3A%2F%2Fexodus.desync.com%3A6969"],"infoHash":"d64c685ee43b0ce34f0e95fbf5c07f1ff1d901d7","infoHashBuffer":{"type":"Buffer","data":[214,76,104,94,228,59,12,227,79,14,149,251,245,192,127,31,241,217,1,215]},"announce":[],"urlList":[]}}